<svg xmlns="http://www.w3.org/2000/svg" enable-background="new 0 0 47.5 47.5" viewBox="0 0 47.5 47.5"><defs><clipPath id="a" clipPathUnits="userSpaceOnUse"><path d="M 0,38 38,38 38,0 0,0 0,38 Z"/></clipPath></defs><g clip-path="url(#a)" transform="matrix(1.25 0 0 -1.25 0 47.5)"><path fill="#ffac33" d="m 0,0 c 0,-11 5,-10 5,-15 0,0 0,-2 -2,-2 l -26,0 c -2,0 -2,2 -2,2 0,5 5,4 5,15 0,5.522 4.478,10 10,10 C -4.478,10 0,5.522 0,0" transform="translate(29 24)"/><path fill="#ffac33" d="m 0,0 c 0,1.657 -1.344,3 -3,3 -1.657,0 -3,-1.343 -3,-3 0,-1.657 1.343,-3 3,-3 1.656,0 3,1.343 3,3" transform="translate(22 34)"/><path fill="#ffac33" d="M 0,0 C 2.209,0 4,1.791 4,4 L -4,4 C -4,1.791 -2.209,0 0,0" transform="translate(19 1)"/></g></svg>