<svg width="18" height="14" viewBox="0 0 18 14" fill="none" xmlns="http://www.w3.org/2000/svg">
<path d="M9.20312 3.49109L3.8125 7.94421V12.7196C3.8125 12.9833 4.01758 13.1884 4.28125 13.1884H7.5625C7.79688 13.1884 8.00195 12.9833 8.00195 12.7196V9.9071C8.00195 9.67273 8.23633 9.43835 8.4707 9.43835H10.3457C10.6094 9.43835 10.8145 9.67273 10.8145 9.9071V12.7196C10.8145 12.9833 11.0488 13.1884 11.2832 13.1884H14.5938C14.8281 13.1884 15.0625 12.9833 15.0625 12.7196V7.91492L9.64258 3.49109C9.58398 3.4325 9.49609 3.4032 9.4375 3.4032C9.34961 3.4032 9.26172 3.4325 9.20312 3.49109ZM17.7285 6.50867L15.2969 4.48718V0.444214C15.2969 0.239136 15.1211 0.0926514 14.9453 0.0926514H13.3047C13.0996 0.0926514 12.9531 0.239136 12.9531 0.444214V2.55359L10.3164 0.38562C10.082 0.209839 9.75977 0.0926514 9.4375 0.0926514C9.08594 0.0926514 8.76367 0.209839 8.5293 0.38562L1.11719 6.50867C1.0293 6.56726 0.970703 6.68445 0.970703 6.77234C0.970703 6.86023 1.0293 6.94812 1.05859 7.00671L1.82031 7.91492C1.87891 8.00281 1.9668 8.0321 2.08398 8.0321C2.17188 8.0321 2.25977 8.00281 2.31836 7.94421L9.20312 2.28992C9.26172 2.23132 9.34961 2.20203 9.4375 2.20203C9.49609 2.20203 9.58398 2.23132 9.64258 2.28992L16.5273 7.94421C16.5859 8.00281 16.6738 8.0321 16.7617 8.0321C16.8789 8.0321 16.9668 8.00281 17.0254 7.91492L17.7871 7.00671C17.8457 6.94812 17.875 6.86023 17.875 6.77234C17.875 6.68445 17.8164 6.56726 17.7285 6.50867Z" fill="white"/>
</svg>
