<svg width="17" height="17" viewBox="0 0 17 17" fill="none" xmlns="http://www.w3.org/2000/svg">
<path d="M15.6777 12.7274L12.25 9.29968C11.5469 8.62585 10.5508 8.47937 9.73047 8.88953L6.625 5.78406V3.93835L2.875 1.12585L1 3.00085L3.8125 6.75085H5.62891L8.73438 9.88562C8.35352 10.7059 8.4707 11.702 9.14453 12.3759L12.5723 15.8329C13.0117 16.243 13.6855 16.243 14.125 15.8329L15.6777 14.2802C16.0879 13.8407 16.0879 13.1669 15.6777 12.7274ZM10.6973 7.71765C11.5469 7.71765 12.3086 8.03992 12.8945 8.62585L13.4805 9.21179C13.9199 9.00671 14.3594 8.71375 14.7402 8.33289C15.8242 7.2489 16.2051 5.72546 15.8535 4.34851C15.7949 4.08484 15.4727 3.99695 15.2676 4.17273L13.0996 6.37L11.1074 6.01843L10.7852 4.02625L12.9531 1.85828C13.1582 1.6532 13.041 1.33093 12.7773 1.27234C11.4004 0.920776 9.87695 1.30164 8.79297 2.38562C7.94336 3.20593 7.5625 4.31921 7.5625 5.4032L9.99414 7.80554C10.2285 7.74695 10.4629 7.71765 10.6973 7.71765ZM7.65039 10.12L6.00977 8.47937L1.52734 12.9325C0.794922 13.6649 0.794922 14.8661 1.52734 15.5985C2.25977 16.3309 3.46094 16.3309 4.19336 15.5985L7.79688 11.9657C7.5918 11.3798 7.50391 10.7645 7.65039 10.12ZM2.875 14.954C2.46484 14.954 2.17188 14.661 2.17188 14.2509C2.17188 13.87 2.46484 13.5477 2.875 13.5477C3.25586 13.5477 3.57812 13.87 3.57812 14.2509C3.57812 14.661 3.25586 14.954 2.875 14.954Z" fill="white"/>
</svg>
